<?xml version="1.0" encoding="utf-8"?>
<!-- Generator: Adobe Illustrator 25.0.0, SVG Export Plug-In . SVG Version: 6.00 Build 0)  -->
<svg version="1.1" id="Capa_1" xmlns="http://www.w3.org/2000/svg" xmlns:xlink="http://www.w3.org/1999/xlink" x="0px" y="0px"
	 viewBox="0 0 66.1 66.1" style="enable-background:new 0 0 66.1 66.1;" xml:space="preserve">
<style type="text/css">
	.st0{fill:#FF0035;}
</style>
<g>
	<g>
		<path class="st0" d="M33.1,66.1C14.8,66.1,0,51.3,0,33.1C0,14.8,14.8,0,33.1,0c18.2,0,33.1,14.8,33.1,33.1
			C66.1,51.3,51.3,66.1,33.1,66.1z M33.1,4C17,4,4,17,4,33.1s13,29.1,29.1,29.1c16,0,29.1-13,29.1-29.1S49.1,4,33.1,4z"/>
		<polygon class="st0" points="35.7,45.6 25.3,33.1 35.7,20.6 38.7,23.1 30.5,33.1 38.7,43 		"/>
	</g>
</g>
</svg>
