<?xml version="1.0" encoding="utf-8"?>
<!-- Generator: Adobe Illustrator 25.0.0, SVG Export Plug-In . SVG Version: 6.00 Build 0)  -->
<svg version="1.1" id="Layer_1" xmlns="http://www.w3.org/2000/svg" xmlns:xlink="http://www.w3.org/1999/xlink" x="0px" y="0px"
	 viewBox="0 0 24 24" style="enable-background:new 0 0 24 24;" xml:space="preserve">
<style type="text/css">
	.st0{fill:#DD333C;stroke:#DD333C;stroke-miterlimit:10;}
	.st1{fill:#64FF00;stroke:#366318;stroke-miterlimit:10;}
</style>
<path class="st0" d="M15.7,5L15.7,5c0.2,0,0.3,0.2,0.3,0.3V18c0,0.2-0.2,0.3-0.3,0.3h0c-0.2,0-0.3-0.2-0.3-0.3V5.3
	C15.4,5.1,15.5,5,15.7,5z"/>
<path class="st0" d="M18.4,14.6L18.4,14.6c0.2,0.1,0.2,0.3,0.1,0.4L16,18.9c-0.1,0.1-0.3,0.2-0.5,0.1h0c-0.2-0.1-0.2-0.3-0.1-0.4
	l2.5-3.9C18,14.5,18.2,14.5,18.4,14.6z"/>
<path class="st0" d="M13,14.6L13,14.6c0.2-0.1,0.4,0,0.5,0.1l2.5,3.9c0.1,0.1,0,0.3-0.1,0.4h0c-0.2,0.1-0.4,0-0.5-0.1L12.9,15
	C12.8,14.9,12.9,14.7,13,14.6z"/>
<path class="st1" d="M7.9,19L7.9,19c-0.2,0-0.3-0.2-0.3-0.3V6c0-0.2,0.2-0.3,0.3-0.3h0c0.2,0,0.3,0.2,0.3,0.3v12.6
	C8.2,18.9,8.1,19,7.9,19z"/>
<path class="st1" d="M5.2,9.4L5.2,9.4C5.1,9.3,5,9.1,5.1,9l2.5-3.9C7.7,5,7.9,4.9,8.1,5l0,0c0.2,0.1,0.2,0.3,0.1,0.4L5.7,9.3
	C5.6,9.5,5.4,9.5,5.2,9.4z"/>
<path class="st1" d="M10.6,9.4L10.6,9.4c-0.2,0.1-0.4,0-0.5-0.1L7.6,5.4C7.5,5.3,7.6,5.1,7.7,5l0,0c0.2-0.1,0.4,0,0.5,0.1L10.7,9
	C10.8,9.1,10.7,9.3,10.6,9.4z"/>
</svg>
