<?xml version="1.0" encoding="utf-8"?>
<!-- Generator: Adobe Illustrator 25.0.0, SVG Export Plug-In . SVG Version: 6.00 Build 0)  -->
<svg version="1.1" xmlns="http://www.w3.org/2000/svg" xmlns:xlink="http://www.w3.org/1999/xlink" x="0px" y="0px"
	 viewBox="0 0 291.7 478.3" style="enable-background:new 0 0 291.7 478.3;" xml:space="preserve">
<style type="text/css">
	.st0{fill:#F2F2F2;}
	.st1{fill:#62992E;}
	.st2{fill:#4C8E11;}
	.st3{fill:none;}
	.st4{fill:#FFFFFF;}
	.st5{clip-path:url(#SVGID_2_);}
	.st6{clip-path:url(#SVGID_4_);}
</style>
<g id="DESIGNED_BY_FREEPIK">
</g>
<g id="BACKGROUND">
</g>
<g id="OBJECTS">
	<g>
		<g>
			
				<rect x="-66.5" y="100.6" transform="matrix(-1.836970e-16 1 -1 -1.836970e-16 387.0735 94.1483)" class="st0" width="426" height="280"/>
			<rect x="6.5" y="27.6" class="st1" width="280" height="30.5"/>
			<rect x="6.5" y="58" class="st2" width="280" height="30.5"/>
			<rect x="6.5" y="88.5" class="st1" width="280" height="30.5"/>
			<rect x="6.5" y="118.9" class="st2" width="280" height="30.5"/>
			<rect x="6.5" y="149.3" class="st1" width="280" height="30.5"/>
			<rect x="6.5" y="179.7" class="st2" width="280" height="30.5"/>
			<rect x="6.5" y="210.2" class="st1" width="280" height="30.5"/>
			<rect x="6.5" y="240.6" class="st2" width="280" height="30.5"/>
			<rect x="6.5" y="271" class="st1" width="280" height="30.5"/>
			<rect x="6.5" y="301.4" class="st2" width="280" height="30.5"/>
			<rect x="6.5" y="331.9" class="st1" width="280" height="30.5"/>
			<rect x="6.5" y="362.3" class="st2" width="280" height="30.5"/>
			<rect x="6.5" y="392.7" class="st1" width="280" height="30.5"/>
			<rect x="6.5" y="423.2" class="st2" width="280" height="30.5"/>
			<path class="st3" d="M15.4,453.6c-4.9,0-8.9-4-8.9-9V36.6c0-5,4-9,8.9-9h262.1c4.9,0,8.9,4,8.9,9v408.1c0,5-4,9-8.9,9H15.4z"/>
		</g>
		<g>
			<g>
				<path class="st4" d="M148.2,408.9c0-0.9-0.8-1.7-1.7-1.7c-0.9,0-1.7,0.8-1.7,1.7c0,0.9,0.8,1.7,1.7,1.7
					C147.4,410.7,148.2,409.9,148.2,408.9z"/>
				<path class="st4" d="M144.8,70.5c0,0.9,0.8,1.7,1.7,1.7c0.9,0,1.7-0.8,1.7-1.7c0-0.9-0.8-1.7-1.7-1.7
					C145.5,68.7,144.8,69.5,144.8,70.5z"/>
				<path class="st4" d="M288.8,454.2v-429H4.2v429H288.8z M145,240.6c0.3,0.5,0.8,0.8,1.4,0.8c0.6,0,1.1-0.3,1.4-0.8h35.2
					c-0.5,20-16.7,36.2-36.7,36.2c-19.9,0-36.2-16.2-36.7-36.2H145z M286.4,27.6v8c-4.1-0.5-7.3-3.8-7.9-8H286.4z M182.1,27.6v19.3
					h-71.2V27.6H182.1z M109.5,27.6v20.7h74V27.6h41.7v64.1H67.8V27.6H109.5z M6.5,27.6h7.9c-0.5,4.1-3.8,7.4-7.9,8V27.6z
					 M147.9,238.8c-0.3-0.5-0.8-0.8-1.4-0.8c-0.6,0-1.1,0.3-1.4,0.8h-35.2c0.5-20,16.7-36.2,36.7-36.2c19.9,0,36.2,16.2,36.7,36.2
					H147.9z M184.5,238.8c-0.2-9.9-4.2-19.3-11.1-26.3c-7.2-7.3-16.7-11.3-26.9-11.3c-10.2,0-19.7,4-26.9,11.3
					c-7,7.1-10.9,16.4-11.1,26.3H6.5V37.1c4.9-0.5,8.9-4.5,9.4-9.5h50.5v65.5h50.4c7.3,9.1,18,14.3,29.6,14.3
					c11.6,0,22.3-5.2,29.6-14.3h50.4V27.6H277c0.5,5,4.5,9,9.4,9.5v201.7H184.5z M118.7,93.1h55.6c-7,8.2-17,12.9-27.8,12.9
					C135.7,106,125.6,101.3,118.7,93.1z M6.5,451.8v-8c4.1,0.5,7.3,3.8,7.9,8H6.5z M110.9,451.8v-19.3h71.2v19.3H110.9z
					 M183.4,451.8v-20.7h-74v20.7H67.8v-64.1h157.3v64.1H183.4z M226.5,451.8v-65.5h-50.4c-7.3-9.1-18-14.3-29.6-14.3
					c-11.6,0-22.3,5.2-29.6,14.3H66.4v65.5H15.9c-0.5-5-4.5-9-9.4-9.5V240.6h101.9c0.2,9.9,4.2,19.3,11.1,26.3
					c7.2,7.3,16.7,11.3,26.9,11.3c10.2,0,19.7-4,26.9-11.3c7-7.1,10.9-16.4,11.1-26.3h101.9v201.7c-4.9,0.5-8.9,4.5-9.4,9.5H226.5z
					 M174.3,386.3h-55.6c7-8.2,17-12.9,27.8-12.9C157.2,373.4,167.3,378.1,174.3,386.3z M278.6,451.8c0.5-4.1,3.8-7.4,7.9-8v8H278.6
					z"/>
			</g>
			<g>
				<defs>
					
						<rect id="SVGID_1_" x="136" y="-13.7" transform="matrix(-1.836970e-16 1 -1 -1.836970e-16 161.2236 -131.702)" width="20.9" height="56.9"/>
				</defs>
				<clipPath id="SVGID_2_">
					<use xlink:href="#SVGID_1_"  style="overflow:visible;"/>
				</clipPath>
				<g class="st5">
					<path class="st4" d="M169.8,6.2h-46.7v23.9h46.7V6.2z M124.1,29.1V7.2h44.7v21.9H124.1z"/>
					<g>
						
							<rect x="156.8" y="18" transform="matrix(-1.836970e-16 1 -1 -1.836970e-16 186.2559 -149.8693)" class="st4" width="22.6" height="0.3"/>
						
							<rect x="155.3" y="18" transform="matrix(-1.836970e-16 1 -1 -1.836970e-16 184.7663 -148.3796)" class="st4" width="22.6" height="0.3"/>
						
							<rect x="153.8" y="18" transform="matrix(-1.836970e-16 1 -1 -1.836970e-16 183.2766 -146.89)" class="st4" width="22.6" height="0.3"/>
						
							<rect x="152.3" y="18" transform="matrix(-1.836970e-16 1 -1 -1.836970e-16 181.787 -145.4003)" class="st4" width="22.6" height="0.3"/>
						
							<rect x="150.8" y="18" transform="matrix(-1.836970e-16 1 -1 -1.836970e-16 180.2973 -143.9107)" class="st4" width="22.6" height="0.3"/>
						
							<rect x="149.3" y="18" transform="matrix(-1.836970e-16 1 -1 -1.836970e-16 178.8077 -142.4211)" class="st4" width="22.6" height="0.3"/>
						
							<rect x="147.8" y="18" transform="matrix(-1.836970e-16 1 -1 -1.836970e-16 177.3181 -140.9314)" class="st4" width="22.6" height="0.3"/>
						
							<rect x="146.3" y="18" transform="matrix(-1.836970e-16 1 -1 -1.836970e-16 175.8284 -139.4418)" class="st4" width="22.6" height="0.3"/>
						
							<rect x="144.8" y="18" transform="matrix(-1.836970e-16 1 -1 -1.836970e-16 174.3388 -137.9522)" class="st4" width="22.6" height="0.3"/>
						
							<rect x="143.3" y="18" transform="matrix(-1.836970e-16 1 -1 -1.836970e-16 172.8491 -136.4625)" class="st4" width="22.6" height="0.3"/>
						
							<rect x="141.9" y="18" transform="matrix(-1.836970e-16 1 -1 -1.836970e-16 171.3595 -134.9729)" class="st4" width="22.6" height="0.3"/>
						
							<rect x="140.4" y="18" transform="matrix(-1.836970e-16 1 -1 -1.836970e-16 169.8699 -133.4832)" class="st4" width="22.6" height="0.3"/>
						
							<rect x="138.9" y="18" transform="matrix(-1.836970e-16 1 -1 -1.836970e-16 168.3802 -131.9936)" class="st4" width="22.6" height="0.3"/>
						
							<rect x="137.4" y="18" transform="matrix(-1.836970e-16 1 -1 -1.836970e-16 166.8906 -130.504)" class="st4" width="22.6" height="0.3"/>
						
							<rect x="135.9" y="18" transform="matrix(-1.836970e-16 1 -1 -1.836970e-16 165.401 -129.0143)" class="st4" width="22.6" height="0.3"/>
						
							<rect x="134.4" y="18" transform="matrix(-1.836970e-16 1 -1 -1.836970e-16 163.9113 -127.5247)" class="st4" width="22.6" height="0.3"/>
						
							<rect x="132.9" y="18" transform="matrix(-1.836970e-16 1 -1 -1.836970e-16 162.4217 -126.035)" class="st4" width="22.6" height="0.3"/>
						
							<rect x="131.4" y="18" transform="matrix(-1.836970e-16 1 -1 -1.836970e-16 160.932 -124.5454)" class="st4" width="22.6" height="0.3"/>
						
							<rect x="129.9" y="18" transform="matrix(-1.836970e-16 1 -1 -1.836970e-16 159.4424 -123.0558)" class="st4" width="22.6" height="0.3"/>
						
							<rect x="128.4" y="18" transform="matrix(-1.836970e-16 1 -1 -1.836970e-16 157.9528 -121.5661)" class="st4" width="22.6" height="0.3"/>
						
							<rect x="127" y="18" transform="matrix(-1.836970e-16 1 -1 -1.836970e-16 156.4631 -120.0765)" class="st4" width="22.6" height="0.3"/>
						
							<rect x="125.5" y="18" transform="matrix(-1.836970e-16 1 -1 -1.836970e-16 154.9735 -118.5869)" class="st4" width="22.6" height="0.3"/>
						
							<rect x="124" y="18" transform="matrix(-1.836970e-16 1 -1 -1.836970e-16 153.4838 -117.0972)" class="st4" width="22.6" height="0.3"/>
						
							<rect x="122.5" y="18" transform="matrix(-1.836970e-16 1 -1 -1.836970e-16 151.9942 -115.6076)" class="st4" width="22.6" height="0.3"/>
						
							<rect x="121" y="18" transform="matrix(-1.836970e-16 1 -1 -1.836970e-16 150.5045 -114.1179)" class="st4" width="22.6" height="0.3"/>
						
							<rect x="119.5" y="18" transform="matrix(-1.836970e-16 1 -1 -1.836970e-16 149.0149 -112.6283)" class="st4" width="22.6" height="0.3"/>
						
							<rect x="118" y="18" transform="matrix(-1.836970e-16 1 -1 -1.836970e-16 147.5253 -111.1387)" class="st4" width="22.6" height="0.3"/>
						
							<rect x="116.5" y="18" transform="matrix(-1.836970e-16 1 -1 -1.836970e-16 146.0356 -109.649)" class="st4" width="22.6" height="0.3"/>
						
							<rect x="115" y="18" transform="matrix(-1.836970e-16 1 -1 -1.836970e-16 144.546 -108.1594)" class="st4" width="22.6" height="0.3"/>
						
							<rect x="113.6" y="18" transform="matrix(-1.836970e-16 1 -1 -1.836970e-16 143.0564 -106.6697)" class="st4" width="22.6" height="0.3"/>
					</g>
					
						<rect x="146.2" y="-14.4" transform="matrix(-1.836970e-16 1 -1 -1.836970e-16 154.9734 -137.952)" class="st4" width="0.6" height="45.7"/>
					
						<rect x="146.2" y="-12.7" transform="matrix(-1.836970e-16 1 -1 -1.836970e-16 156.6729 -136.2525)" class="st4" width="0.6" height="45.7"/>
					
						<rect x="146.2" y="-11" transform="matrix(-1.836970e-16 1 -1 -1.836970e-16 158.3723 -134.5531)" class="st4" width="0.6" height="45.7"/>
					
						<rect x="146.2" y="-9.3" transform="matrix(-1.836970e-16 1 -1 -1.836970e-16 160.0717 -132.8536)" class="st4" width="0.6" height="45.7"/>
					
						<rect x="146.2" y="-7.6" transform="matrix(-1.836970e-16 1 -1 -1.836970e-16 161.7711 -131.1543)" class="st4" width="0.6" height="45.7"/>
					
						<rect x="146.2" y="-5.9" transform="matrix(-1.836970e-16 1 -1 -1.836970e-16 163.4706 -129.4548)" class="st4" width="0.6" height="45.7"/>
					
						<rect x="146.2" y="-4.2" transform="matrix(-1.836970e-16 1 -1 -1.836970e-16 165.17 -127.7554)" class="st4" width="0.6" height="45.7"/>
					
						<rect x="146.2" y="-2.5" transform="matrix(-1.836970e-16 1 -1 -1.836970e-16 166.8694 -126.056)" class="st4" width="0.6" height="45.7"/>
					
						<rect x="146.2" y="-0.8" transform="matrix(-1.836970e-16 1 -1 -1.836970e-16 168.5688 -124.3566)" class="st4" width="0.6" height="45.7"/>
					
						<rect x="146.2" y="0.9" transform="matrix(-1.836970e-16 1 -1 -1.836970e-16 170.2682 -122.6571)" class="st4" width="0.6" height="45.7"/>
					
						<rect x="146.2" y="2.6" transform="matrix(-1.836970e-16 1 -1 -1.836970e-16 171.9677 -120.9577)" class="st4" width="0.6" height="45.7"/>
					
						<rect x="146.2" y="4.3" transform="matrix(-1.836970e-16 1 -1 -1.836970e-16 173.6671 -119.2583)" class="st4" width="0.6" height="45.7"/>
				</g>
			</g>
			<g>
				<defs>
					
						<rect id="SVGID_3_" x="136" y="436.2" transform="matrix(6.123234e-17 -1 1 6.123234e-17 -318.1714 611.0972)" width="20.9" height="56.9"/>
				</defs>
				<clipPath id="SVGID_4_">
					<use xlink:href="#SVGID_3_"  style="overflow:visible;"/>
				</clipPath>
				<g class="st6">
					<path class="st4" d="M123.1,473.2h46.7v-23.9h-46.7V473.2z M168.8,450.2v21.9h-44.7v-21.9H168.8z"/>
					<g>
						
							<rect x="113.6" y="461" transform="matrix(6.123234e-17 -1 1 6.123234e-17 -336.3387 586.0648)" class="st4" width="22.6" height="0.3"/>
						
							<rect x="115" y="461" transform="matrix(6.123234e-17 -1 1 6.123234e-17 -334.849 587.5544)" class="st4" width="22.6" height="0.3"/>
						
							<rect x="116.5" y="461" transform="matrix(6.123234e-17 -1 1 6.123234e-17 -333.3594 589.0441)" class="st4" width="22.6" height="0.3"/>
						
							<rect x="118" y="461" transform="matrix(6.123234e-17 -1 1 6.123234e-17 -331.8698 590.5338)" class="st4" width="22.6" height="0.3"/>
						
							<rect x="119.5" y="461" transform="matrix(6.123234e-17 -1 1 6.123234e-17 -330.3802 592.0233)" class="st4" width="22.6" height="0.3"/>
						
							<rect x="121" y="461" transform="matrix(6.123234e-17 -1 1 6.123234e-17 -328.8905 593.513)" class="st4" width="22.6" height="0.3"/>
						
							<rect x="122.5" y="461" transform="matrix(6.123234e-17 -1 1 6.123234e-17 -327.4008 595.0026)" class="st4" width="22.6" height="0.3"/>
						
							<rect x="124" y="461" transform="matrix(6.123234e-17 -1 1 6.123234e-17 -325.9113 596.4922)" class="st4" width="22.6" height="0.3"/>
						
							<rect x="125.5" y="461" transform="matrix(6.123234e-17 -1 1 6.123234e-17 -324.4215 597.9819)" class="st4" width="22.6" height="0.3"/>
						
							<rect x="127" y="461" transform="matrix(6.123234e-17 -1 1 6.123234e-17 -322.9319 599.4716)" class="st4" width="22.6" height="0.3"/>
						
							<rect x="128.4" y="461" transform="matrix(6.123234e-17 -1 1 6.123234e-17 -321.4423 600.9612)" class="st4" width="22.6" height="0.3"/>
						
							<rect x="129.9" y="461" transform="matrix(6.123234e-17 -1 1 6.123234e-17 -319.9526 602.4509)" class="st4" width="22.6" height="0.3"/>
						
							<rect x="131.4" y="461" transform="matrix(6.123234e-17 -1 1 6.123234e-17 -318.463 603.9404)" class="st4" width="22.6" height="0.3"/>
						
							<rect x="132.9" y="461" transform="matrix(6.123234e-17 -1 1 6.123234e-17 -316.9734 605.4301)" class="st4" width="22.6" height="0.3"/>
						
							<rect x="134.4" y="461" transform="matrix(6.123234e-17 -1 1 6.123234e-17 -315.4837 606.9197)" class="st4" width="22.6" height="0.3"/>
						
							<rect x="135.9" y="461" transform="matrix(6.123234e-17 -1 1 6.123234e-17 -313.9941 608.4094)" class="st4" width="22.6" height="0.3"/>
						
							<rect x="137.4" y="461" transform="matrix(6.123234e-17 -1 1 6.123234e-17 -312.5045 609.899)" class="st4" width="22.6" height="0.3"/>
						
							<rect x="138.9" y="461" transform="matrix(6.123234e-17 -1 1 6.123234e-17 -311.0148 611.3887)" class="st4" width="22.6" height="0.3"/>
						
							<rect x="140.4" y="461" transform="matrix(6.123234e-17 -1 1 6.123234e-17 -309.5252 612.8783)" class="st4" width="22.6" height="0.3"/>
						
							<rect x="141.9" y="461" transform="matrix(6.123234e-17 -1 1 6.123234e-17 -308.0356 614.3679)" class="st4" width="22.6" height="0.3"/>
						
							<rect x="143.3" y="461" transform="matrix(6.123234e-17 -1 1 6.123234e-17 -306.5459 615.8575)" class="st4" width="22.6" height="0.3"/>
						
							<rect x="144.8" y="461" transform="matrix(6.123234e-17 -1 1 6.123234e-17 -305.0562 617.3472)" class="st4" width="22.6" height="0.3"/>
						
							<rect x="146.3" y="461" transform="matrix(6.123234e-17 -1 1 6.123234e-17 -303.5667 618.8369)" class="st4" width="22.6" height="0.3"/>
						
							<rect x="147.8" y="461" transform="matrix(6.123234e-17 -1 1 6.123234e-17 -302.077 620.3265)" class="st4" width="22.6" height="0.3"/>
						
							<rect x="149.3" y="461" transform="matrix(6.123234e-17 -1 1 6.123234e-17 -300.5873 621.8162)" class="st4" width="22.6" height="0.3"/>
						
							<rect x="150.8" y="461" transform="matrix(6.123234e-17 -1 1 6.123234e-17 -299.0977 623.3057)" class="st4" width="22.6" height="0.3"/>
						
							<rect x="152.3" y="461" transform="matrix(6.123234e-17 -1 1 6.123234e-17 -297.6081 624.7954)" class="st4" width="22.6" height="0.3"/>
						
							<rect x="153.8" y="461" transform="matrix(6.123234e-17 -1 1 6.123234e-17 -296.1184 626.285)" class="st4" width="22.6" height="0.3"/>
						
							<rect x="155.3" y="461" transform="matrix(6.123234e-17 -1 1 6.123234e-17 -294.6288 627.7747)" class="st4" width="22.6" height="0.3"/>
						
							<rect x="156.8" y="461" transform="matrix(6.123234e-17 -1 1 6.123234e-17 -293.1391 629.2643)" class="st4" width="22.6" height="0.3"/>
					</g>
					
						<rect x="146.2" y="448" transform="matrix(6.123234e-17 -1 1 6.123234e-17 -324.4214 617.3472)" class="st4" width="0.6" height="45.7"/>
					
						<rect x="146.2" y="446.3" transform="matrix(6.123234e-17 -1 1 6.123234e-17 -322.722 615.6478)" class="st4" width="0.6" height="45.7"/>
					
						<rect x="146.2" y="444.6" transform="matrix(6.123234e-17 -1 1 6.123234e-17 -321.0226 613.9484)" class="st4" width="0.6" height="45.7"/>
					
						<rect x="146.2" y="442.9" transform="matrix(6.123234e-17 -1 1 6.123234e-17 -319.3232 612.249)" class="st4" width="0.6" height="45.7"/>
					
						<rect x="146.2" y="441.2" transform="matrix(6.123234e-17 -1 1 6.123234e-17 -317.6237 610.5496)" class="st4" width="0.6" height="45.7"/>
					
						<rect x="146.2" y="439.5" transform="matrix(6.123234e-17 -1 1 6.123234e-17 -315.9243 608.8501)" class="st4" width="0.6" height="45.7"/>
					
						<rect x="146.2" y="437.8" transform="matrix(6.123234e-17 -1 1 6.123234e-17 -314.2249 607.1507)" class="st4" width="0.6" height="45.7"/>
					
						<rect x="146.2" y="436.1" transform="matrix(6.123234e-17 -1 1 6.123234e-17 -312.5255 605.4512)" class="st4" width="0.6" height="45.7"/>
					
						<rect x="146.2" y="434.4" transform="matrix(6.123234e-17 -1 1 6.123234e-17 -310.826 603.7518)" class="st4" width="0.6" height="45.7"/>
					
						<rect x="146.2" y="432.7" transform="matrix(6.123234e-17 -1 1 6.123234e-17 -309.1266 602.0524)" class="st4" width="0.6" height="45.7"/>
					
						<rect x="146.2" y="431" transform="matrix(6.123234e-17 -1 1 6.123234e-17 -307.4272 600.353)" class="st4" width="0.6" height="45.7"/>
					
						<rect x="146.2" y="429.3" transform="matrix(6.123234e-17 -1 1 6.123234e-17 -305.7278 598.6536)" class="st4" width="0.6" height="45.7"/>
				</g>
			</g>
		</g>
	</g>
</g>
</svg>
