<?xml version="1.0" ?><!DOCTYPE svg  PUBLIC '-//W3C//DTD SVG 1.1//EN'  'http://www.w3.org/Graphics/SVG/1.1/DTD/svg11.dtd'><svg enable-background="new 0 0 128 128" id="Слой_1" version="1.1" viewBox="0 0 128 128" xml:space="preserve" xmlns="http://www.w3.org/2000/svg" xmlns:xlink="http://www.w3.org/1999/xlink"><g><g><g><g><g><path d="M55.6,120.8L55.6,120.8c-1.6,0.6-3.3-0.2-3.8-1.8l-8-22l5.6-2.1l8,22C57.9,118.5,57.1,120.2,55.6,120.8       z" fill="#C88B79"/></g></g></g><g><g><g><rect fill="#FAF28E" height="60" transform="matrix(0.9397 -0.342 0.342 0.9397 -9.2864 29.7817)" width="40" x="59.8" y="11.2"/></g></g></g><g><g><g><rect fill="#F37865" height="30" transform="matrix(0.9397 -0.342 0.342 0.9397 -13.8236 32.3418)" width="40" x="64.8" y="40.4"/></g></g></g><g opacity="0.2"><g><g><rect fill="#62345B" height="16" transform="matrix(0.342 0.9397 -0.9397 0.342 87.6857 -34.5712)" width="60" x="38.5" y="37.3"/></g></g></g><g><g><g><polygon fill="#F37865" points="71.1,76.3 67.7,66.9 77.2,63.4      "/></g></g></g><g><g><g><path d="M71.3,77.8c-0.6,0-1.2-0.4-1.4-1c-0.3-0.8,0.1-1.6,0.9-1.9l36.2-13.2L87.4,8.1L51.3,21.3       c-0.8,0.3-1.6-0.1-1.9-0.9c-0.3-0.8,0.1-1.6,0.9-1.9L87.8,4.8c0.4-0.1,0.8-0.1,1.1,0.1c0.4,0.2,0.6,0.5,0.8,0.8l20.5,56.4       c0.1,0.4,0.1,0.8,0,1.1c-0.2,0.4-0.5,0.6-0.8,0.8L71.8,77.7C71.6,77.7,71.4,77.8,71.3,77.8z" fill="#62355C"/></g></g></g><g opacity="0.5"><g><g><polygon fill="#62345B" points="71.1,76.3 67.7,66.9 77.2,63.4      "/></g></g></g><g><g><g><rect fill="#FAF28E" height="60" transform="matrix(0.9397 -0.342 0.342 0.9397 -11.4883 19.0211)" width="40" x="28.2" y="12.1"/></g></g></g><g><g><g><rect fill="#F37865" height="30" transform="matrix(0.9397 -0.342 0.342 0.9397 -13.4078 26.1155)" width="10.1" x="62.3" y="36.1"/></g></g></g><g><g><g><rect fill="#F37865" height="30" transform="matrix(0.9397 -0.342 0.342 0.9397 -7.8451 14.9126)" width="30" x="23.4" y="14.7"/></g></g></g><g><g><g><path d="M46.5,97.4c-0.6,0-1.2-0.4-1.4-1L17.7,21.3c-0.3-0.8,0.1-1.6,0.9-1.9c0.8-0.3,1.6,0.1,1.9,0.9       l27.4,75.2c0.3,0.8-0.1,1.6-0.9,1.9C46.8,97.4,46.7,97.4,46.5,97.4z" fill="#62355C"/></g></g></g><g><g><g><path d="M39.7,78.6c-0.6,0-1.2-0.4-1.4-1L17.7,21.3c-0.3-0.8,0.1-1.6,0.9-1.9L56.2,5.6c0.4-0.1,0.8-0.1,1.1,0.1       c0.4,0.2,0.6,0.5,0.8,0.8l20.5,56.4c0.3,0.8-0.1,1.6-0.9,1.9L40.2,78.5C40,78.6,39.8,78.6,39.7,78.6z M21.1,21.6l19.5,53.6       l34.8-12.7L55.8,9L21.1,21.6z" fill="#62355C"/></g></g></g><g><g><g><path d="M71.1,77.8c-0.2,0-0.4,0-0.6-0.1c-0.7-0.4-1.1-1.3-0.7-2l6.1-12.9c0.4-0.7,1.2-1.1,2-0.7       c0.7,0.4,1.1,1.3,0.7,2l-6.1,12.9C72.2,77.5,71.7,77.8,71.1,77.8z" fill="#62355C"/></g></g></g><g><g><g><path d="M54.5,122.5c-1.9,0-3.6-1.2-4.2-3l-8-22c-0.3-0.8,0.1-1.6,0.9-1.9l5.6-2.1c0.4-0.1,0.8-0.1,1.1,0.1       c0.4,0.2,0.6,0.5,0.8,0.8l8,22c0.4,1.1,0.4,2.4-0.2,3.4s-1.4,1.9-2.5,2.3C55.6,122.4,55.1,122.5,54.5,122.5z M45.6,97.8       l7.5,20.6c0.3,0.8,1.2,1.2,1.9,0.9c0.4-0.1,0.7-0.4,0.8-0.8c0.2-0.4,0.2-0.8,0.1-1.1l-7.5-20.6L45.6,97.8z" fill="#62355C"/></g></g></g></g></g></svg>