<?xml version="1.0" encoding="utf-8"?>
<!-- Generator: Adobe Illustrator 25.0.0, SVG Export Plug-In . SVG Version: 6.00 Build 0)  -->
<svg version="1.1" id="Layer_1" xmlns="http://www.w3.org/2000/svg" xmlns:xlink="http://www.w3.org/1999/xlink" x="0px" y="0px"
	 viewBox="0 0 24 24" style="enable-background:new 0 0 24 24;" xml:space="preserve">
<style type="text/css">
	.st0{fill:#FFFFFF;}
</style>
<g>
	<path class="st0" d="M11.2,13.9c0,0-0.3,0.9-0.3,0.9l0.5,0.8h1.2l0.5-0.8c0,0-0.3-0.9-0.3-0.9C12.8,13.9,11.2,13.9,11.2,13.9z"/>
	<path class="st0" d="M8.2,8.8c0.7,2,2,3.5,3.8,3.5c1.8,0,3.1-1.5,3.8-3.5c1.4-1.4,1.1-2.5,0.8-3C17.3,2.1,15,0,11.9,0
		C6.3,0,7.3,6.1,7.3,6.1c0,0,0,0,0,0C7,6.7,7,7.6,8.2,8.8z M10.5,4.3l-0.4,1.5c2-0.6,2.2-0.9,2.6-1.2C13,4.4,13.2,4.2,13.5,4
		c0.1,0.2,0.2,0.4,0.4,0.5c0.1,0.2,0.4-1.4,0.4-1.4s0.5,0.9,0.6,1.2c0.1,0.2,0.4,1.1,0.6,1.2c-0.1,2.9-1.4,5.9-3.4,5.9
		c-1.9,0-3.2-2.6-3.4-5.3C9.1,6.1,10.5,4.3,10.5,4.3z"/>
	<path class="st0" d="M22,17c-1.2-3-3.8-4.3-3.8-4.3l-2.8-1L15,12.6l0.8,0.3l-2.8,9.4l-0.4-6.3h-1.1l-0.4,6.2l-2.8-9.3L9,12.6
		l-0.4-0.9l-2.8,1l0,0c0,0-2.7,1.3-3.8,4.3c-0.2,0.6-0.4,1.3-0.5,2.1C4,22.1,7.8,24,12,24c0,0,0,0,0,0c0.2,0,0.5,0,0.7,0
		c0,0,0,0,0,0c3.9-0.2,7.4-2.1,9.7-4.9C22.4,18.3,22.2,17.6,22,17z M14.8,20.1c0,0,2,0.2,3.5-0.6v0.6c-1.2,0.5-2.3,0.5-3,0.5
		c-0.2,0-0.4,0-0.5,0C14.8,20.7,14.8,20.1,14.8,20.1z"/>
</g>
</svg>
