<?xml version="1.0" encoding="utf-8"?>
<!-- Generator: Adobe Illustrator 25.0.0, SVG Export Plug-In . SVG Version: 6.00 Build 0)  -->
<svg version="1.1" id="Capa_1" xmlns="http://www.w3.org/2000/svg" xmlns:xlink="http://www.w3.org/1999/xlink" x="0px" y="0px"
	 viewBox="0 0 140.2 140.2" style="enable-background:new 0 0 140.2 140.2;" xml:space="preserve">
<style type="text/css">
	.st0{fill:#A5F96E;}
</style>
<g>
	<g id="_x33_52._Repeat">
		<g>
			<path class="st0" d="M32,90.6c-11-5.1-18-12.4-18-20.6c0-13.1,17.9-24,42.1-27.1V28.8C24.1,32.7,0,49.7,0,70.1
				C0,81.8,8,92.4,20.9,100C35,108.6,42.1,94.6,32,90.6z M116.2,38.4c-7.5-6.9-18,3.6-10.9,9.8c12.7,5.1,20.9,13,20.9,21.8
				c0,13.1-17.9,24-42.1,27.1v14.1c32-3.9,56.1-20.9,56.1-41.2C140.2,57.4,130.9,46.1,116.2,38.4z M62.3,52.5l22.8-13.7
				c3.3-2,3.3-5.2,0-7.2l-23-13.9c-3.3-2-6-0.5-6,3.4l0.1,28C56.2,52.9,58.9,54.4,62.3,52.5z M78.1,87.7l-23,13.9
				c-3.3,2-3.3,5.2,0,7.2l22.8,13.7c3.3,2,6,0.5,6-3.4l0.1-28C84.1,87.2,81.4,85.7,78.1,87.7z"/>
		</g>
	</g>
</g>
</svg>
