<?xml version="1.0" encoding="utf-8"?>
<!-- Generator: Adobe Illustrator 25.0.0, SVG Export Plug-In . SVG Version: 6.00 Build 0)  -->
<svg version="1.1" id="Capa_1" xmlns="http://www.w3.org/2000/svg" xmlns:xlink="http://www.w3.org/1999/xlink" x="0px" y="0px"
	 viewBox="0 0 256 256" style="enable-background:new 0 0 256 256;" xml:space="preserve">
<style type="text/css">
	.st0{fill:#191919;}
	.st1{fill:#F20029;}
	.st2{fill:#E83A2A;}
</style>
<path class="st0" d="M40.6,49.2c-1.3,0-33.1,24.3-33.1,76c0,53.2,30.9,81.3,32.6,81.5s16.4-13.6,16.4-14.7s-27-20.6-27-65.3
	s26.7-61.3,26.7-62.8C56.4,63,44.1,49.2,40.6,49.2L40.6,49.2z"/>
<path class="st0" d="M74.8,78.6c-1.6,0-21.7,12.7-22.1,46.9c-0.5,35.1,19.7,52.4,21,52.6s14.2-13.4,14.2-14.5s-15.5-11.8-14.7-35.5
	c0.9-25.8,14.9-34.6,14.9-35.7S76.7,78.6,74.8,78.6L74.8,78.6z"/>
<path class="st0" d="M215.4,49.2c1.3,0,33.1,24.3,33.1,76c0,53.2-30.9,81.3-32.6,81.5s-16.4-13.6-16.4-14.7s26.9-20.6,26.9-65.3
	s-26.7-61.4-26.7-62.9C199.6,63,211.9,49.2,215.4,49.2L215.4,49.2z"/>
<path class="st0" d="M181.2,78.6c1.6,0,21.7,12.7,22.1,46.9c0.4,35.1-19.7,52.4-21,52.6s-14.2-13.4-14.2-14.5s15.5-11.8,14.7-35.5
	c-0.9-25.8-14.9-34.6-14.9-35.7S179.3,78.6,181.2,78.6L181.2,78.6z"/>
<path class="st0" d="M151.1,128.1c0,15.2-10.2,28.5-26.8,27.5c-14.8-0.9-26.8-12.3-26.8-27.5s10.8-27.1,26.8-27.5
	C140.1,100.2,151.1,112.9,151.1,128.1z"/>
<path class="st1" d="M40.6,49.2c-1.3,0-33.1,24.3-33.1,76c0,53.2,30.9,81.3,32.6,81.5s16.4-13.6,16.4-14.7s-27-20.6-27-65.3
	s26.7-61.3,26.7-62.8C56.4,63,44.1,49.2,40.6,49.2L40.6,49.2z"/>
<path class="st1" d="M74.8,78.6c-1.6,0-21.7,12.7-22.1,46.9c-0.5,35.1,19.7,52.4,21,52.6s14.2-13.4,14.2-14.5s-15.5-11.8-14.7-35.5
	c0.9-25.8,14.9-34.6,14.9-35.7S76.7,78.6,74.8,78.6L74.8,78.6z"/>
<path class="st1" d="M215.4,49.2c1.3,0,33.1,24.3,33.1,76c0,53.2-30.9,81.3-32.6,81.5s-16.4-13.6-16.4-14.7s26.9-20.6,26.9-65.3
	s-26.7-61.4-26.7-62.9C199.6,63,211.9,49.2,215.4,49.2L215.4,49.2z"/>
<path class="st1" d="M181.2,78.6c1.6,0,21.7,12.7,22.1,46.9c0.4,35.1-19.7,52.4-21,52.6s-14.2-13.4-14.2-14.5s15.5-11.8,14.7-35.5
	c-0.9-25.8-14.9-34.6-14.9-35.7S179.3,78.6,181.2,78.6L181.2,78.6z"/>
<path class="st2" d="M151.1,128.1c0,15.2-10.2,28.5-26.8,27.5c-14.8-0.9-26.8-12.3-26.8-27.5s10.8-27.1,26.8-27.5
	C140.1,100.2,151.1,112.9,151.1,128.1z"/>
</svg>
