<?xml version="1.0" encoding="utf-8"?>
<!-- Generator: Adobe Illustrator 25.0.0, SVG Export Plug-In . SVG Version: 6.00 Build 0)  -->
<svg version="1.1"
	 id="svg831" inkscape:version="1.0 (4035a4fb49, 2020-05-01)" sodipodi:docname="30 - Whistle.svg" xmlns:cc="http://creativecommons.org/ns#" xmlns:dc="http://purl.org/dc/elements/1.1/" xmlns:inkscape="http://www.inkscape.org/namespaces/inkscape" xmlns:rdf="http://www.w3.org/1999/02/22-rdf-syntax-ns#" xmlns:sodipodi="http://sodipodi.sourceforge.net/DTD/sodipodi-0.dtd" xmlns:svg="http://www.w3.org/2000/svg"
	 xmlns="http://www.w3.org/2000/svg" xmlns:xlink="http://www.w3.org/1999/xlink" x="0px" y="0px" viewBox="0 0 64 50.1"
	 style="enable-background:new 0 0 64 50.1;" xml:space="preserve">
<style type="text/css">
	.st0{fill:#10110F;}
</style>
<sodipodi:namedview  bordercolor="#666666" borderopacity="1.0" id="base" inkscape:bbox-nodes="true" inkscape:current-layer="layer1" inkscape:cx="32.84632" inkscape:cy="42.666667" inkscape:document-rotation="0" inkscape:document-units="pt" inkscape:object-paths="true" inkscape:pagecheckerboard="true" inkscape:pageopacity="0.0" inkscape:pageshadow="2" inkscape:showpageshadow="false" inkscape:snap-bbox="true" inkscape:snap-global="true" inkscape:snap-intersection-paths="true" inkscape:snap-midpoints="true" inkscape:snap-nodes="false" inkscape:snap-smooth-nodes="true" inkscape:window-height="705" inkscape:window-maximized="1" inkscape:window-width="1366" inkscape:window-x="-8" inkscape:window-y="-8" inkscape:zoom="6.0079346" pagecolor="#ffffff" showgrid="false" showguides="true" units="pt">
	<inkscape:grid  id="grid1378" type="xygrid"></inkscape:grid>
	<sodipodi:guide  id="guide1380" inkscape:locked="false" orientation="78.000048,0" position="0.97013831,21.607643">
		</sodipodi:guide>
	<sodipodi:guide  id="guide1382" inkscape:locked="false" orientation="0,78.000005" position="0.97013831,0.97013129">
		</sodipodi:guide>
	<sodipodi:guide  id="guide1384" inkscape:locked="false" orientation="-78.000048,0" position="21.607639,0.97013129">
		</sodipodi:guide>
	<sodipodi:guide  id="guide1386" inkscape:locked="false" orientation="0,-78.000005" position="21.607639,21.607643">
		</sodipodi:guide>
</sodipodi:namedview>
<g id="layer1" transform="translate(0,-274.42223)" inkscape:groupmode="layer" inkscape:label="Icon">
	
		<path id="path2414" sodipodi:nodetypes="ccccccccccccccccccccccccssccccccccccccccscccccscscccccccccccscssssccsscccsssccsssscscccccccccccccsccccscsccccccccsccss" class="st0" d="
		M32.7,275.4c-0.5,0.2-0.6,0.8-0.4,1.3l3.5,6.5c0.3,0.5,0.8,0.6,1.3,0.4s0.6-0.8,0.4-1.3l-3.5-6.5C33.5,275.2,33.1,275.1,32.7,275.4
		z M51.7,277c-1.3,0.8-1.8,2.5-1,3.9L56,290c0.8,1.3,2.5,1.8,3.9,1c1.3-0.8,1.8-2.5,1-3.9l-5.3-9.1C54.4,276.5,53.3,276.1,51.7,277z
		 M27.1,279.4c-0.3,0.4-0.2,1,0.2,1.3l5.4,4c0.4,0.3,1,0.2,1.3-0.2c0.3-0.4,0.2-1-0.2-1.3l-5.4-4C27.8,278.9,27.5,278.9,27.1,279.4
		L27.1,279.4z M12.3,281.1c-1.1,0.8-2.1,1.8-3,3c-1.8,2.4-3.2,5.1-3.8,6.4c-2.2,4.3-3.1,10.3-2.5,16.1s2.6,11.4,6.7,15.1
		c3.5,3.1,7.8,2.3,10-0.1c1.2-1.8,1.7-3.2,1.4-5c0.5-0.2,0.9-0.4,1.4-0.6l0,0c4.5,4,11.3,4.9,17,1.6c4.1-2.4,6.6-6.4,7.1-10.8
		c0.6-4.9,1.6-10.7,5.3-13.1l3.1-2c-0.6-1-1.2-2.1-1.9-3.2c-1.8,1.1-3.6,2.2-5.2,3.4c-4.2,3-5.6,9.7-6.2,13.7
		c-0.1,3.3-1.8,6.5-4.8,8.2c-0.4,0.3-1,0.1-1.3-0.3c-0.3-0.5-0.1-1,0.3-1.3c3.6-2.1,4.9-6.8,2.8-10.4c-2.1-3.6-6.7-4.9-10.4-2.8
		c-3.6,2.1-4.9,6.7-2.8,10.4c0.3,0.5,0.1,1-0.3,1.3s-1,0.1-1.3-0.3c-2.6-4.5-1.1-10.4,3.5-13c1.4-0.8,3-1.2,4.5-1.3
		c0.9,0,1.8,0.1,2.7,0.3c2.3,0.6,4.5,2.2,5.8,4.4c0.1,0.1,0.1,0.2,0.2,0.3c0.9-3.8,2.5-8.2,6.2-10.8c1.7-1.3,3.6-2.5,5.4-3.5
		c-1.3-2.3-2.7-4.6-3.9-6.9l-7.6,4.4c-0.5,0.3-0.6,0.8-0.3,1.3l1.3,2.3l-9.2,1.2c-0.1,0-0.2,0.1-0.3,0.1l-6.8,3.9
		c-5.3,3.1-8,8.9-7.2,14.4c-1.4,0.9-2.8,1.9-3.8,3.1c-0.4,0.5-0.7,1-0.9,1.5c-1.1-2-1.4-4.2-1.2-6.6c0.3-3.3,1.5-6.9,2.8-10.3
		s2.7-6.6,3.4-9.2c0.3-1.3,0.4-2.5,0.1-3.6s-1.2-2-2.4-2.5C14.7,279.9,13.4,280.4,12.3,281.1L12.3,281.1z M15.5,317.3
		c0.8,0.3,1.6,0.3,2.5,0.2c0.4-0.1,0.8-0.1,1.3-0.2c0.1,1.2-0.3,2.4-1,3.1c-1.6,1.7-4.5,2.5-7.4,0c-3.6-3.2-5.6-8.4-6.1-13.8
		c-0.5-5.5,0.4-11.1,2.4-15c0.7-1.3,2-4,3.7-6.1c0.8-1.1,1.7-2,2.6-2.6c0.8-0.5,1.4-0.6,2.2-0.6c0.7,0.3,1,0.5,1.1,1.1
		c0.2,0.6,0.1,1.5-0.2,2.7c-0.5,2.3-1.9,5.5-3.3,8.9s-2.6,7.2-2.9,10.8c-0.3,3.7,0.5,7.3,3.3,10.2C14.2,316.6,14.8,317.1,15.5,317.3
		z M24.4,285.4c-0.1,0.5,0.2,1,0.7,1.1l5.5,1.3c0.5,0.1,1-0.2,1.1-0.7s-0.2-1-0.7-1.1l-5.7-1.3C24.9,284.7,24.5,285,24.4,285.4z
		 M31.8,301.1c0.5-0.1,1.1,0.1,1.6,0.2c1.2,0.3,2.2,1.1,2.9,2.2c1.3,2.3,0.5,5.2-1.7,6.5c-2.3,1.3-5.2,0.5-6.5-1.7
		c-0.3-0.4-0.1-1,0.3-1.3c0.5-0.3,1-0.1,1.3,0.3c0.8,1.4,2.5,1.8,3.9,1s1.8-2.5,1.1-3.9c-0.8-1.4-2.5-1.8-3.9-1
		c-0.5,0.3-1,0.1-1.3-0.3c-0.3-0.5-0.1-1,0.3-1.3C30.4,301.3,31.1,301.1,31.8,301.1L31.8,301.1z M18.5,309.7c0.3,1,0.7,2.1,1.3,3.1
		c0.4,0.7,0.8,1.3,1.3,1.8c-0.3,0.1-0.5,0.2-0.8,0.3c-0.6-0.8-1.4-1.6-2.5-2.2c-0.5-0.3-1-0.1-1.3,0.4s-0.1,1,0.4,1.3
		c0.6,0.3,1.1,0.7,1.5,1.1c-0.7,0.2-1.5,0.1-2.2,0c-0.4-0.1-0.7-0.4-1-0.8c-0.2-0.4-0.3-0.8-0.2-1.2c0.1-0.4,0.4-0.9,0.8-1.5
		C16.4,311.3,17.4,310.5,18.5,309.7L18.5,309.7z"/>
</g>
</svg>
