<?xml version="1.0" encoding="utf-8"?>
<!-- Generator: Adobe Illustrator 25.0.0, SVG Export Plug-In . SVG Version: 6.00 Build 0)  -->
<svg version="1.1" xmlns="http://www.w3.org/2000/svg" xmlns:xlink="http://www.w3.org/1999/xlink" x="0px" y="0px"
	 viewBox="0 0 342.9 225" style="enable-background:new 0 0 342.9 225;" xml:space="preserve">
<style type="text/css">
	.st0{fill:#FFFFFF;}
	.st1{fill:#042D4F;}
</style>
<g id="Capa_2">
	<rect x="11" y="10" class="st0" width="321" height="183"/>
</g>
<g id="Capa_1">
	<g>
		<path class="st1" d="M0,0v9.8v197h105.6v16.6c0,0.8,0.7,1.5,1.5,1.5h140.1c0.8,0,1.5-0.7,1.5-1.5v-16.6h94.2V0L0,0z M19.6,19.6
			h303.6v167.6H19.6L19.6,19.6z"/>
		<path class="st1" d="M228.8,54.1V150h23.6v-32.7h5.7l21.1,33.7l25.9-4.2l-23.6-35.1c9.4-4.9,18-13.1,18-25.4
			c0-24.1-15.6-32.2-35.2-32.2L228.8,54.1z M260.9,72.5c2.9,0.1,14.7,0.8,14.7,13.4c0,14.4-15.3,13.4-15.3,13.4h-7.9V72.5
			L260.9,72.5z"/>
		<path class="st1" d="M158,54.2L122.9,151h23.9l6.2-19.7h33l6.6,20.6l24.8-4l-33.6-93.7H158z M169.3,79l10.7,33.5h-21.2L169.3,79z"
			/>
		<path class="st1" d="M67,54.2l-26.3,4.2l33.6,93.5h25.7L135,55.1h-25.5L88.6,122L67,54.2z"/>
	</g>
</g>
</svg>
